<svg width="22" height="22" viewBox="0 0 22 22" fill="none" xmlns="http://www.w3.org/2000/svg">
<g clip-path="url(#clip0_59_290)">
<path d="M19.9375 0.515628H2.0625C1.65693 0.511501 1.26628 0.668433 0.976282 0.951989C0.686281 1.23555 0.520611 1.62257 0.515625 2.02813V19.9753C0.521513 20.3803 0.687579 20.7664 0.977482 21.0492C1.26739 21.3321 1.65752 21.4885 2.0625 21.4844H19.9375C20.3431 21.4876 20.7335 21.3301 21.0233 21.0464C21.3132 20.7627 21.4789 20.3757 21.4844 19.9702V2.02297C21.4771 1.6186 21.3106 1.23342 21.0209 0.951169C20.7313 0.668914 20.3419 0.512393 19.9375 0.515628Z" fill="#0076B2"/>
<path d="M3.61957 8.37547H6.73223V18.3906H3.61957V8.37547ZM5.17676 3.3911C5.53377 3.3911 5.88275 3.49698 6.17957 3.69536C6.47638 3.89374 6.70769 4.1757 6.84424 4.50556C6.98078 4.83542 7.01642 5.19837 6.94664 5.54849C6.87687 5.89862 6.70482 6.22018 6.45226 6.4725C6.19969 6.72482 5.87797 6.89657 5.52778 6.96601C5.17759 7.03545 4.81468 6.99946 4.48494 6.86261C4.15521 6.72575 3.87347 6.49417 3.67538 6.19717C3.47729 5.90016 3.37173 5.55107 3.37207 5.19407C3.37253 4.71573 3.56286 4.25714 3.90126 3.91907C4.23965 3.581 4.69842 3.3911 5.17676 3.3911ZM8.68473 8.37547H11.6685V9.75047H11.7097C12.1257 8.96328 13.1397 8.13313 14.6539 8.13313C17.8061 8.12625 18.3905 10.2008 18.3905 12.8906V18.3906H15.2779V13.518C15.2779 12.3578 15.2572 10.8642 13.6605 10.8642C12.0638 10.8642 11.7922 12.1292 11.7922 13.4423V18.3906H8.68473V8.37547Z" fill="white"/>
</g>
<defs>
<clipPath id="clip0_59_290">
<rect width="22" height="22" fill="white"/>
</clipPath>
</defs>
</svg>
