<svg width="22" height="22" viewBox="0 0 22 22" fill="none" xmlns="http://www.w3.org/2000/svg">
<g clip-path="url(#clip0_29_70)">
<path d="M20.1667 2.75H1.83333C1.3471 2.75 0.880788 2.94315 0.536971 3.28697C0.193154 3.63079 0 4.0971 0 4.58333L0 17.4167C0 17.9029 0.193154 18.3692 0.536971 18.713C0.880788 19.0568 1.3471 19.25 1.83333 19.25H20.1667C20.6529 19.25 21.1192 19.0568 21.463 18.713C21.8068 18.3692 22 17.9029 22 17.4167V4.58333C22 4.0971 21.8068 3.63079 21.463 3.28697C21.1192 2.94315 20.6529 2.75 20.1667 2.75ZM11 9.05667L3.73083 3.66667H18.2692L11 9.05667ZM3.66667 8.4425L10.725 13.6583C10.8035 13.7157 10.8982 13.7466 10.9954 13.7466C11.0926 13.7466 11.1873 13.7157 11.2658 13.6583L18.3333 8.4425V18.3333H3.66667V8.4425Z" fill="#2867B2"/>
</g>
<defs>
<clipPath id="clip0_29_70">
<rect width="22" height="22" fill="white"/>
</clipPath>
</defs>
</svg>
