<svg width="22" height="22" viewBox="0 0 22 22" fill="none" xmlns="http://www.w3.org/2000/svg">
<path d="M11.9167 7.33333C12.646 7.33333 13.3455 7.62306 13.8612 8.13879C14.3769 8.65451 14.6667 9.35399 14.6667 10.0833C14.6667 10.3264 14.7632 10.5596 14.9352 10.7315C15.1071 10.9034 15.3402 11 15.5833 11C15.8264 11 16.0596 10.9034 16.2315 10.7315C16.4034 10.5596 16.5 10.3264 16.5 10.0833C16.5 8.86776 16.0171 7.70197 15.1576 6.84243C14.298 5.98289 13.1322 5.5 11.9167 5.5C11.6736 5.5 11.4404 5.59658 11.2685 5.76849C11.0966 5.94039 11 6.17355 11 6.41667C11 6.65978 11.0966 6.89294 11.2685 7.06485C11.4404 7.23676 11.6736 7.33333 11.9167 7.33333Z" fill="#2867B2"/>
<path d="M11.9166 3.66666C13.6184 3.66666 15.2505 4.3427 16.4539 5.54606C17.6572 6.74942 18.3333 8.38152 18.3333 10.0833C18.3333 10.3264 18.4298 10.5596 18.6017 10.7315C18.7736 10.9034 19.0068 11 19.2499 11C19.493 11 19.7262 10.9034 19.8981 10.7315C20.07 10.5596 20.1666 10.3264 20.1666 10.0833C20.1666 7.89529 19.2974 5.79687 17.7502 4.2497C16.203 2.70252 14.1046 1.83333 11.9166 1.83333C11.6735 1.83333 11.4403 1.92991 11.2684 2.10181C11.0965 2.27372 10.9999 2.50688 10.9999 2.74999C10.9999 2.99311 11.0965 3.22627 11.2684 3.39818C11.4403 3.57008 11.6735 3.66666 11.9166 3.66666ZM19.9374 14.5842C19.887 14.437 19.8 14.3051 19.6845 14.2009C19.569 14.0966 19.4289 14.0235 19.2774 13.9883L13.7774 12.7325C13.6281 12.6986 13.4727 12.7027 13.3254 12.7444C13.1781 12.786 13.0436 12.8638 12.9341 12.9708C12.8058 13.09 12.7966 13.0992 12.2008 14.2358C10.2237 13.3248 8.6395 11.7341 7.73659 9.75333C8.90075 9.16666 8.90992 9.16666 9.02909 9.02916C9.13607 8.91967 9.21393 8.78513 9.25556 8.63782C9.29719 8.49051 9.30127 8.33512 9.26742 8.18583L8.01159 2.74999C7.97643 2.59847 7.90329 2.45838 7.79905 2.34291C7.69481 2.22745 7.56291 2.14041 7.41575 2.08999C7.20168 2.01354 6.98062 1.95827 6.75575 1.92499C6.52407 1.87127 6.28764 1.84057 6.04992 1.83333C4.93159 1.83333 3.85906 2.27758 3.06829 3.06836C2.27751 3.85914 1.83325 4.93167 1.83325 6.04999C1.8381 9.79248 3.32695 13.3803 5.97329 16.0266C8.61962 18.673 12.2074 20.1618 15.9499 20.1667C16.5037 20.1667 17.052 20.0576 17.5636 19.8457C18.0752 19.6338 18.54 19.3232 18.9316 18.9316C19.3231 18.5401 19.6337 18.0752 19.8456 17.5636C20.0575 17.0521 20.1666 16.5037 20.1666 15.95C20.1669 15.7167 20.1485 15.4837 20.1116 15.2533C20.0731 15.0256 20.0148 14.8017 19.9374 14.5842Z" fill="#2867B2"/>
</svg>
