<svg width="16" height="16" viewBox="0 0 16 16" fill="none" xmlns="http://www.w3.org/2000/svg">
<mask id="mask0_59_302" style="mask-type:alpha" maskUnits="userSpaceOnUse" x="0" y="0" width="16" height="16">
<rect width="16" height="16" fill="#D9D9D9"/>
</mask>
<g mask="url(#mask0_59_302)">
<path d="M1.33325 9.99999V5.99999C1.33325 5.63333 1.46381 5.31944 1.72492 5.05833C1.98603 4.79722 2.29992 4.66666 2.66659 4.66666C3.03325 4.66666 3.34714 4.79722 3.60825 5.05833C3.86936 5.31944 3.99992 5.63333 3.99992 5.99999V9.99999C3.99992 10.3667 3.86936 10.6806 3.60825 10.9417C3.34714 11.2028 3.03325 11.3333 2.66659 11.3333C2.29992 11.3333 1.98603 11.2028 1.72492 10.9417C1.46381 10.6806 1.33325 10.3667 1.33325 9.99999ZM5.99992 12.6667C5.63325 12.6667 5.31936 12.5361 5.05825 12.275C4.79714 12.0139 4.66659 11.7 4.66659 11.3333V4.66666C4.66659 4.29999 4.79714 3.98611 5.05825 3.72499C5.31936 3.46388 5.63325 3.33333 5.99992 3.33333H9.99992C10.3666 3.33333 10.6805 3.46388 10.9416 3.72499C11.2027 3.98611 11.3333 4.29999 11.3333 4.66666V11.3333C11.3333 11.7 11.2027 12.0139 10.9416 12.275C10.6805 12.5361 10.3666 12.6667 9.99992 12.6667H5.99992ZM11.9999 9.99999V5.99999C11.9999 5.63333 12.1305 5.31944 12.3916 5.05833C12.6527 4.79722 12.9666 4.66666 13.3333 4.66666C13.6999 4.66666 14.0138 4.79722 14.2749 5.05833C14.536 5.31944 14.6666 5.63333 14.6666 5.99999V9.99999C14.6666 10.3667 14.536 10.6806 14.2749 10.9417C14.0138 11.2028 13.6999 11.3333 13.3333 11.3333C12.9666 11.3333 12.6527 11.2028 12.3916 10.9417C12.1305 10.6806 11.9999 10.3667 11.9999 9.99999Z" fill="#2867B2"/>
</g>
</svg>
